# AST/ASF file generated using VICON BodyLanguage
# -----------------------------------------------
:version 1.10
:name VICON
:units
  mass 1.0
  length 0.45
  angle deg
:documentation
   .ast/.asf automatically generated from VICON data using
   VICON BodyBuilder and BodyLanguage model FoxedUp or BRILLIANT.MOD
:root
   order TX TY TZ RX RY RZ
   axis XYZ
   position 0 0 0  
   orientation 0 0 0 
:bonedata
  begin
     id 1 
     name lhipjoint
     direction 0.561001 -0.76473 0.316963 
     length 2.4722 
     axis 0 0 0  XYZ
  end
  begin
     id 2 
     name lfemur
     direction 0.34202 -0.939693 0  
     length 7.59403  
     axis 0 0 20  XYZ
    dof rx ry rz
    limits (-160.0 20.0)
           (-70.0 70.0)
           (-60.0 70.0)
  end
  begin
     id 3 
     name ltibia
     direction 0.34202 -0.939693 0   
     length 7.89655   
     axis 0 0 20   XYZ
    dof rx
    limits (-10.0 170.0)
  end
  begin
     id 4 
     name lfoot
     direction 0.061296 -0.168409 0.98381   
     length 2.73287   
     axis -90 7.62852e-016 20   XYZ
    dof rx rz
    limits (-45.0 90.0)
           (-70.0 20.0)
  end
  begin
     id 5 
     name ltoes
     direction 1.53547e-011 -4.21984e-011 1   
     length 1.37057   
     axis -90 7.62852e-016 20   XYZ
    dof rx
    limits (-90.0 20.0)
  end
  begin
     id 6 
     name rhipjoint
     direction -0.559611 -0.765599 0.317323   
     length 2.46939  
     axis 0 0 0  XYZ 
  end
  begin
     id 7 
     name rfemur
     direction -0.34202 -0.939693 0   
     length 7.53712   
     axis 0 0 -20   XYZ
    dof rx ry rz
    limits (-160.0 20.0)
           (-70.0 70.0)
           (-70.0 60.0)
  end
  begin
     id 8 
     name rtibia
     direction -0.34202 -0.939693 0   
     length 8.12549   
     axis 0 0 -20   XYZ
    dof rx
    limits (-10.0 170.0)
 end
 begin
     id 9 
     name rfoot
     direction -0.066984 -0.184037 0.980634   
     length 2.67541  
     axis -90 -7.62852e-016 -20   XYZ
    dof rx rz
    limits (-45.0 90.0)
           (-20.0 70.0)
  end
  begin
     id 10 
     name rtoes
     direction -1.53549e-011 -4.21786e-011 1   
     length 1.34085   
     axis -90 -7.62852e-016 -20   XYZ
    dof rx
    limits (-90.0 20.0)
  end
  begin
     id 11 
     name lowerback
     direction -0.0522728 0.992594 -0.109658   
     length 2.05633   
     axis 0 0 0   XYZ
    dof rx ry rz
    limits (-20.0 45.0)
           (-30.0 30.0)
           (-30.0 30.0)
  end
  begin
     id 12 
     name upperback
     direction 0.00589338 0.999977 0.00335704   
     length 2.05845   
     axis 0 0 0   XYZ
    dof rx ry rz
    limits (-20.0 45.0)
           (-30.0 30.0)
           (-30.0 30.0)
  end
  begin
     id 13 
     name thorax
     direction 0.0292928 0.998059 0.0549487   
     length 2.09281   
     axis 0 0 0   XYZ
    dof rx ry rz
    limits (-20.0 45.0)
           (-30.0 30.0)
           (-30.0 30.0)
  end
  begin
     id 14 
     name lowerneck
     direction 0.0356368 0.980775 0.191858   
     length 1.84767   
     axis 0 0 0   XYZ
    dof rx ry rz
    limits (-20.0 45.0)
           (-30.0 30.0)
           (-30.0 30.0)
  end
  begin
     id 15 
     name upperneck
     direction -0.0227605 0.98931 -0.14404   
     length 1.89582   
     axis 0 0 0   XYZ
    dof rx ry rz
    limits (-20.0 45.0)
           (-30.0 30.0)
           (-30.0 30.0)
  end
  begin
     id 16
     name head
     direction -0.00932985 0.997511 -0.0698904  
     length 1.90213  
     axis 0 0 0   XYZ
    dof rx ry rz
    limits (-20.0 45.0)
           (-30.0 30.0)
           (-30.0 30.0)
  end
  begin
     id 17 
     name lclavicle
     direction 0.873442 0.479511 0.0846686  
     length 3.41193  
     axis 0 0 0   XYZ
    dof ry rz
    limits (-20.0 10.0)
           (0.0 20.0)
  end
  begin
     id 18 
     name lhumerus
     direction 1 -4.4897e-011 -5.62117e-018   
     length 5.59864   
     axis 180 -30 -90   XYZ
    dof rx ry rz
    limits (-60.0 90.0)
           (-90.0 90.0)
           (-90.0 90.0)
  end
  begin
     id 19
     name lradius
     direction 1 -4.48966e-011 -6.26295e-027   
     length 3.59542   
     axis 180 -30 -90   XYZ
    dof rx
    limits (-10.0 170.0)
  end
  begin
     id 20
     name lwrist
     direction 1 -4.48947e-011 -1.74096e-026   
     length 1.79771   
     axis 1.04567e-014 90 90   XYZ
    dof ry
    limits (-180.0 0.0)
 end
  begin
     id 21 
     name lhand
     direction 1 -4.49085e-011 -3.48469e-026   
     length 0.572014   
     axis 2.22196e-014 90 90   XYZ
    dof rx rz
    limits (-90.0 90.0)
           (-45.0 45.0)
  end
  begin
     id 22 
     name lfingers
     direction 1 -4.48884e-011 -6.96135e-026   
     length 0.461173   
     axis 4.44383e-014 90 90   XYZ
    dof rx
    limits (0.0 90.0)
  end
  begin
     id 23
     name lthumb
     direction 0.707107 -6.34976e-011 0.707107   
     length 0.662154   
     axis -90 45 -5.4397e-014   XYZ
    dof rx rz
    limits (-45.0 45.0)
           (-45.0 45.0)
  end
  begin
     id 24 
     name rclavicle
     direction -0.890242 0.443271 0.104786   
     length 3.46753  
     axis 0 0 0   XYZ 
    dof ry rz
    limits (-10.0 20.0)
           (-20.0 0.0)
  end
  begin
     id 25 
     name rhumerus
     direction -1 -4.48963e-011 -5.41723e-018  
     length 5.8094   
     axis 180 30 90   XYZ
    dof rx ry rz
    limits (-90.0 60.0)
           (-90.0 90.0)
           (-90.0 90.0)
  end
  begin
     id 26 
     name rradius
     direction -1 -4.48958e-011 -6.51059e-027   
     length 3.66953   
     axis 180 30 90   XYZ
    dof rx
    limits (-10.0 170.0)
  end
  begin
     id 27 
     name rwrist
     direction -1 -4.48975e-011 -1.74124e-026   
     length 1.83476   
     axis 1.04567e-014 -90 -90   XYZ
    dof ry
    limits (-180.0 0.0)
  end
  begin
     id 28
     name rhand
     direction -1 -4.49013e-011 -3.48326e-026   
     length 0.57843   
     axis 2.22196e-014 -90 -90   XYZ
    dof rx rz
    limits (-90.0 90.0)
           (-45.0 45.0)
  end
  begin
     id 29
     name rfingers
     direction -1 -4.49023e-011 -6.9669e-026   
     length 0.466345   
     axis 4.44383e-014 -90 -90   XYZ
    dof rx
    limits (0.0 90.0)
  end
  begin
     id 30
     name rthumb
     direction -0.707107 -6.34926e-011 0.707107   
     length 0.669581   
     axis -90 -45 5.4397e-014   XYZ
    dof rx rz
    limits (-45.0 45.0)
           (-45.0 45.0)
  end
:hierarchy
  begin
    root lhipjoint rhipjoint lowerback
    lhipjoint lfemur
    lfemur ltibia
    ltibia lfoot
    lfoot ltoes
    rhipjoint rfemur
    rfemur rtibia
    rtibia rfoot
    rfoot rtoes
    lowerback upperback
    upperback thorax
    thorax lowerneck lclavicle rclavicle
    lowerneck upperneck
    upperneck head
    lclavicle lhumerus
    lhumerus lradius
    lradius lwrist
    lwrist lhand lthumb
    lhand lfingers
    rclavicle rhumerus
    rhumerus rradius
    rradius rwrist
    rwrist rhand rthumb
    rhand rfingers
  end

#!OML:ASF H:\SkateBoarding\Project 1\Capture day 1\Session 1\Skater.ASF
:FULLY-SPECIFIED
:DEGREES
384
root -4.15787 18.3783 38.0812 -0.174925 54.5035 7.37435
lowerback 9.54361 -1.2709 -8.92418
upperback 0.21257 -2.69868 -1.10702
thorax -4.78549 -1.12808 4.20828
lowerneck -11.5094 2.85247 7.94029
upperneck 45.3018 3.25004 0.834037
head 19.6794 3.26345 -0.230262
rclavicle -1.30285e-013 1.98785e-014
rhumerus -60.333 -36.7943 -58.4021
rradius 26.8772
rwrist -1.17579
rhand -27.1704 -18.3492
rfingers 7.12502
rthumb -0.584651 -48.3282
lclavicle -1.30285e-013 1.98785e-014
lhumerus -25.293 -6.94467 97.0996
lradius 29.7924
lwrist 20.0974
lhand -16.6951 12.1205
lfingers 7.12502
lthumb 9.52954 41.8851
rfemur -40.2001 -5.42233 22.7914
rtibia 56.7126
rfoot -27.7154 12.9673
rtoes -1.75604
lfemur 19.3466 9.69595 -28.968
ltibia -2.38542e-014
lfoot -10.0217 -11.6462
ltoes -22.8828
385
root -4.21145 18.4005 38.071 -0.582737 54.2337 6.94277
lowerback 9.53131 -1.25853 -8.73976
upperback 0.169758 -2.66294 -1.06687
thorax -4.83478 -1.11148 4.14383
lowerneck -11.5748 3.00617 8.16011
upperneck 45.1688 3.54474 0.52019
head 19.6421 3.36689 -0.371266
rclavicle 1.5412e-014 3.55825e-014
rhumerus -58.1921 -35.8445 -61.1483
rradius 27.4391
rwrist -2.17311
rhand -26.955 -17.628
rfingers 7.12502
rthumb -0.376671 -47.6074
lclavicle 1.5412e-014 3.55825e-014
lhumerus -26.0228 -5.47336 96.6914
lradius 29.3189
lwrist 20.7972
lhand -15.3993 13.4827
lfingers 7.12502
lthumb 10.7796 43.1861
rfemur -40.0525 -4.65184 22.5529
rtibia 57.1408
rfoot -27.8508 13.1811
rtoes -1.82121
lfemur 19.2465 9.92958 -28.587
ltibia -4.77083e-014
lfoot -9.93394 -11.6915
ltoes -22.7615
386
root -4.2645 18.4215 38.0619 -0.898662 54.0781 6.58482
lowerback 9.51152 -1.27479 -8.60464
upperback 0.123146 -2.66998 -1.03074
thorax -4.87615 -1.11511 4.10761
lowerneck -11.6407 3.14937 8.34593
upperneck 44.9485 3.80816 0.241221
head 19.5442 3.45304 -0.496878
rclavicle 5.19325e-014 -1.98785e-014
rhumerus -56.1038 -34.7194 -63.83
rradius 28.0658
rwrist -3.3032
rhand -26.8055 -16.9587
rfingers 7.12502
rthumb -0.232254 -46.9383
lclavicle 5.19325e-014 -1.98785e-014
lhumerus -26.7039 -4.07368 96.2019
lradius 28.8686
lwrist 21.5061
lhand -14.06 14.6664
lfingers 7.12502
lthumb 12.0713 44.2982
rfemur -39.9439 -3.97615 22.2392
rtibia 57.6455
rfoot -27.9056 13.4527
rtoes -1.83241
lfemur 19.1167 10.0491 -28.2623
ltibia 7.95139e-014
lfoot -9.83083 -11.7295
ltoes -22.6429
387
root -4.31758 18.4408 38.0535 -1.12046 54.0339 6.30971
lowerback 9.48713 -1.31794 -8.53233
upperback 0.0786214 -2.71895 -1.00001
thorax -4.90479 -1.13853 4.10564
lowerneck -11.7089 3.28207 8.50081
upperneck 44.6421 4.03992 -0.00579827
head 19.3879 3.52188 -0.608651
rclavicle -5.12492e-014 5.96354e-016
rhumerus -54.0849 -33.4246 -66.4233
rradius 28.7518
rwrist -4.47899
rhand -26.699 -16.3664
rfingers 7.12502
rthumb -0.129418 -46.3461
lclavicle -5.12492e-014 5.96354e-016
lhumerus -27.321 -2.73138 95.6334
lradius 28.442
lwrist 22.181
lhand -12.7789 15.6287
lfingers 7.12502
lthumb 13.3063 45.1839
rfemur -39.8656 -3.39858 21.8445
rtibia 58.2135
rfoot -27.8682 13.7863
rtoes -1.80513
lfemur 18.9583 10.0594 -28.0019
ltibia 5.08889e-014
lfoot -9.71135 -11.7573
ltoes -22.5111
388
root -4.37067 18.4591 38.0458 -1.28912 54.0824 6.06196
lowerback 9.44856 -1.37912 -8.48783
upperback 0.0378395 -2.79298 -0.966926
thorax -4.91688 -1.17444 4.12403
lowerneck -11.7864 3.39841 8.61664
upperneck 44.2595 4.23119 -0.215719
head 19.1818 3.56982 -0.703556
rclavicle -5.397e-014 -3.18055e-015
rhumerus -52.169 -31.99 -68.8836
rradius 29.5027
rwrist -5.62436
rhand -26.5936 -15.8695
rfingers 7.12502
rthumb -0.0275388 -45.8492
lclavicle -5.397e-014 -3.18055e-015
lhumerus -27.8628 -1.44482 95.0028
lradius 28.0446
lwrist 22.8332
lhand -11.6163 16.3443
lfingers 7.12502
lthumb 14.4267 45.8229
rfemur -39.8113 -2.90312 21.4085
rtibia 58.8258
rfoot -27.7441 14.1697
rtoes -1.73471
lfemur 18.7653 9.97722 -27.7728
ltibia -1.90833e-014
lfoot -9.58011 -11.7713
ltoes -22.3838
389
root -4.4241 18.4761 38.0389 -1.42255 54.2247 5.82802
lowerback 9.41249 -1.4533 -8.45285
upperback -0.00319058 -2.88572 -0.938387
thorax -4.92798 -1.21937 4.14525
lowerneck -11.8667 3.49219 8.70271
upperneck 43.8115 4.37182 -0.388366
head 18.9326 3.59525 -0.784822
rclavicle 2.07233e-014 6.36111e-015
rhumerus -50.4017 -30.4479 -71.1795
rradius 30.3391
rwrist -6.70057
rhand -26.4395 -15.4711
rfingers 7.12502
rthumb 0.121245 -45.4508
lclavicle 2.07233e-014 6.36111e-015
lhumerus -28.3487 -0.248648 94.3219
lradius 27.7155
lwrist 23.5407
lhand -10.6936 16.8777
lfingers 7.12502
lthumb 15.3157 46.2906
rfemur -39.7656 -2.49896 20.9458
rtibia 59.4686
rfoot -27.5441 14.5819
rtoes -1.64758
lfemur 18.5436 9.80294 -27.5673
ltibia -1.27222e-014
lfoot -9.44558 -11.7647
ltoes -22.2928
390
root -4.47758 18.4921 38.0326 -1.50683 54.4456 5.63109
lowerback 9.3765 -1.53253 -8.43861
upperback -0.0414466 -2.98756 -0.919215
thorax -4.93451 -1.26858 4.16912
lowerneck -11.9534 3.56104 8.76495
upperneck 43.3132 4.46014 -0.528697
head 18.6532 3.59851 -0.855751
rclavicle -6.72886e-014 -7.95139e-016
rhumerus -48.8023 -28.8634 -73.2631
rradius 31.2547
rwrist -7.68008
rhand -26.2019 -15.1339
rfingers 7.12502
rthumb 0.350758 -45.1134
lclavicle -6.72886e-014 -7.95139e-016
lhumerus -28.78 0.859515 93.6095
lradius 27.4966
lwrist 24.437
lhand -10.0743 17.2889
lfingers 7.12502
lthumb 15.9121 46.6552
rfemur -39.7188 -2.17961 20.4446
rtibia 60.1312
rfoot -27.284 14.9952
rtoes -1.55463
lfemur 18.299 9.55276 -27.3991
ltibia -2.8625e-014
lfoot -9.31103 -11.7439
ltoes -22.2203
391
root -4.53095 18.5072 38.0269 -1.56607 54.7304 5.44781
lowerback 9.3452 -1.61182 -8.4276
upperback -0.0779435 -3.09038 -0.905231
thorax -4.94179 -1.31822 4.18952
lowerneck -12.0436 3.60293 8.79746
upperneck 42.7791 4.49911 -0.639782
head 18.3529 3.58007 -0.916042
rclavicle 3.81418e-015 4.37326e-015
rhumerus -47.3878 -27.2877 -75.1084
rradius 32.2707
rwrist -8.61651
rhand -25.8638 -14.8259
rfingers 7.12502
rthumb 0.677324 -44.8046
lclavicle 3.81418e-015 4.37326e-015
lhumerus -29.1546 1.93054 92.8617
lradius 27.4033
lwrist 25.5755
lhand -9.73169 17.6096
lfingers 7.12502
lthumb 16.242 46.9493
rfemur -39.6568 -1.93567 19.9261
rtibia 60.8015
rfoot -26.9873 15.3871
rtoes -1.4825
lfemur 18.0378 9.24043 -27.2501
ltibia 6.04305e-014
lfoot -9.17996 -11.7108
ltoes -22.1596
392
root -4.58429 18.5214 38.0214 -1.60616 55.062 5.26323
lowerback 9.31237 -1.68453 -8.40659
upperback -0.115622 -3.18342 -0.894533
thorax -4.95141 -1.36316 4.19958
lowerneck -12.135 3.6158 8.80836
upperneck 42.2237 4.48921 -0.729711
head 18.0419 3.54104 -0.970705
rclavicle 2.83641e-014 -1.98785e-014
rhumerus -46.1798 -25.8092 -76.6833
rradius 33.4144
rwrist -9.57728
rhand -25.4309 -14.5137
rfingers 7.12502
rthumb 1.09543 -44.4906
lclavicle 2.83641e-014 -1.98785e-014
lhumerus -29.4823 2.94458 92.0982
lradius 27.482
lwrist 27.1366
lhand -9.59286 17.863
lfingers 7.12502
lthumb 16.3757 47.1917
rfemur -39.5819 -1.75542 19.407
rtibia 61.4677
rfoot -26.6729 15.7376
rtoes -1.43648
lfemur 17.7531 8.8816 -27.1111
ltibia 7.95139e-014
lfoot -9.05568 -11.6665
ltoes -22.1214
393
root -4.6376 18.5348 38.016 -1.63427 55.4142 5.07133
lowerback 9.27888 -1.74468 -8.37855
upperback -0.156565 -3.25904 -0.880539
thorax -4.96661 -1.39935 4.20711
lowerneck -12.23 3.60396 8.79127
upperneck 41.6663 4.44352 -0.803417
head 17.7335 3.48562 -1.01816
rclavicle -1.53636e-013 -2.62396e-014
rhumerus -45.1303 -24.4163 -78.0151
rradius 34.6496
rwrist -10.7013
rhand -24.9203 -14.196
rfingers 7.12502
rthumb 1.58854 -44.1698
lclavicle -1.53636e-013 -2.62396e-014
lhumerus -29.7705 3.94539 91.3267
lradius 27.7615
lwrist 29.2191
lhand -9.56628 18.0569
lfingers 7.12502
lthumb 16.4013 47.3834
rfemur -39.4913 -1.61495 18.8966
rtibia 62.1239
rfoot -26.3702 16.0286
rtoes -1.43207
lfemur 17.4471 8.50109 -26.9739
ltibia -2.8625e-014
lfoot -8.93665 -11.6152
ltoes -22.084
394
root -4.69104 18.5473 38.0107 -1.66795 55.779 4.85457
lowerback 9.2442 -1.7914 -8.34056
upperback -0.198691 -3.31529 -0.856614
thorax -4.98489 -1.42602 4.21721
lowerneck -12.3285 3.56963 8.75201
upperneck 41.1201 4.36943 -0.870743
head 17.4363 3.41687 -1.06252
rclavicle 3.40419e-015 1.19271e-014
rhumerus -44.2275 -23.1436 -79.1171
rradius 35.9894
rwrist -12.1222
rhand -24.3729 -13.8982
rfingers 7.12502
rthumb 2.11718 -43.8674
lclavicle 3.40419e-015 1.19271e-014
lhumerus -30.0261 4.92207 90.5589
lradius 28.2714
lwrist 31.9303
lhand -9.55318 18.1929
lfingers 7.12502
lthumb 16.4139 47.5185
rfemur -39.3749 -1.50561 18.413
rtibia 62.7578
rfoot -26.0937 16.2656
rtoes -1.43328
lfemur 17.1232 8.10587 -26.8243
ltibia -2.8625e-014
lfoot -8.81917 -11.5642
ltoes -22.0367
395
root -4.74511 18.5598 38.0065 -1.87596 56.1658 4.46903
lowerback 9.24895 -1.88883 -8.21831
upperback -0.240516 -3.43297 -0.80932
thorax -5.02015 -1.48428 4.21411
lowerneck -12.3696 3.56737 8.71872
upperneck 40.4728 4.34775 -0.951661
head 17.0788 3.36477 -1.10593
rclavicle -1.55549e-014 8.74653e-015
rhumerus -43.2474 -21.6645 -80.2086
rradius 37.0767
rwrist -12.3915
rhand -23.5785 -13.2917
rfingers 7.12502
rthumb 2.88443 -43.2519
lclavicle -1.55549e-014 8.74653e-015
lhumerus -30.3107 6.13851 89.6553
lradius 28.4613
lwrist 33.5
lhand -10.6694 18.9892
lfingers 7.12502
lthumb 15.3389 48.4003
rfemur -39.2188 -1.3628 18.0044
rtibia 63.3737
rfoot -25.7117 16.5573
rtoes -1.35405
lfemur 16.8384 7.68507 -26.5606
ltibia -4.29375e-014
lfoot -8.6932 -11.5383
ltoes -21.8236
396
root -4.79948 18.5685 37.9981 -1.75607 56.5827 4.32454
lowerback 9.16085 -1.88659 -8.15584
upperback -0.298636 -3.41881 -0.819698
thorax -5.03798 -1.47686 4.1639
lowerneck -12.5063 3.45343 8.6295
upperneck 39.9733 4.14331 -0.95422
head 16.8179 3.24634 -1.13212
rclavicle -7.10282e-014 -2.78299e-015
rhumerus -42.976 -21.4951 -80.5589
rradius 39.0439
rwrist -14.322
rhand -22.9322 -12.9837
rfingers 7.12502
rthumb 3.5086 -42.9345
lclavicle -7.10282e-014 -2.78299e-015
lhumerus -30.4984 7.00965 88.8517
lradius 29.4108
lwrist 37.5627
lhand -9.39112 19.0318
lfingers 7.12502
lthumb 16.5699 48.3443
rfemur -39.1294 -1.38898 17.5096
rtibia 63.9376
rfoot -25.4641 16.6378
rtoes -1.54812
lfemur 16.4021 7.23558 -26.4855
ltibia -3.33958e-014
lfoot -8.5921 -11.4678
ltoes -21.9211
397
root -4.85132 18.579 37.9937 -1.71791 56.8054 4.15948
lowerback 9.09789 -1.85593 -8.22338
upperback -0.351091 -3.37862 -0.73506
thorax -5.0545 -1.45255 4.28423
lowerneck -12.625 3.39104 8.48751
upperneck 39.5471 4.08188 -1.05014
head 16.6065 3.16882 -1.16389
rclavicle 3.76945e-014 2.78299e-015
rhumerus -42.052 -19.835 -81.3604
rradius 40.3134
rwrist -17.7427
rhand -22.5748 -12.9512
rfingers 7.12502
rthumb 3.85372 -42.8961
lclavicle 3.76945e-014 2.78299e-015
lhumerus -30.7172 8.13872 88.1222
lradius 30.6985
lwrist 42.4787
lhand -8.47483 19.2896
lfingers 7.12502
lthumb 17.4519 48.5262
rfemur -38.9406 -1.18926 17.0338
rtibia 64.4724
rfoot -25.3583 16.6655
rtoes -1.56532
lfemur 16.0451 6.97597 -26.3535
ltibia 2.06736e-014
lfoot -8.48368 -11.4003
ltoes -21.8089
398
root -4.90331 18.5854 37.9914 -1.93959 57.1178 3.76804
lowerback 9.09106 -1.81913 -8.15057
upperback -0.359412 -3.31834 -0.655696
thorax -5.06644 -1.42343 4.32004
lowerneck -12.7474 3.29193 8.48547
upperneck 39.1491 3.94317 -1.19419
head 16.4165 3.07528 -1.25387
rclavicle -7.05437e-014 -2.14687e-014
rhumerus -41.5242 -19.0604 -81.8346
rradius 42.0463
rwrist -21.3774
rhand -22.5204 -13.316
rfingers 7.12502
rthumb 3.90621 -43.26
lclavicle -7.05437e-014 -2.14687e-014
lhumerus -30.9263 8.85257 87.4941
lradius 32.2954
lwrist 48.3054
lhand -7.72723 19.4505
lfingers 7.12502
lthumb 18.1713 48.6217
rfemur -38.5606 -1.11925 16.776
rtibia 64.9377
rfoot -25.3149 16.7867
rtoes -1.41136
lfemur 15.7717 6.62754 -26.0777
ltibia -4.13472e-014
lfoot -8.35543 -11.4078
ltoes -21.691
